<svg width="180" height="47" fill="none" xmlns="http://www.w3.org/2000/svg"><path fill-rule="evenodd" clip-rule="evenodd" d="M52.84 0c2.407 0 4.621.85 6.358 2.272H46.483A10.003 10.003 0 0 1 52.841 0Zm8.45 4.584c.452.685.823 1.432 1.102 2.22H43.289c.28-.788.65-1.535 1.102-2.22h16.9Zm1.63 4.543a10.453 10.453 0 0 1 0 2.267H42.76a10.452 10.452 0 0 1 0-2.267h20.16Zm-.528 4.585a10.396 10.396 0 0 1-1.071 2.173H44.36a10.391 10.391 0 0 1-1.072-2.173h19.103Zm-3.133 4.491a10.023 10.023 0 0 1-6.419 2.318c-2.437 0-4.671-.87-6.418-2.318H59.26ZM0 41.238V13.52h17.422c15.122 0 14.538 10.286 5.235 12.748 10.725.598 12.599 14.969-5.235 14.969H0Zm6.429-16.035h6.804c14.198 0 13.573-8.839 4.19-8.839H6.428v8.84Zm0 13.14c2.366 0 5.788-.02 8.155-.02 14.243.02 12.633-10.704 2.843-10.704H6.43v10.724Z" fill="#002D6E"/><path fill-rule="evenodd" clip-rule="evenodd" d="M35.799 30.833V13.521h5.712v17.312c.28 3.971 2.224 7.036 7.45 8.309 2.092.18 4.189.205 6.28 0 4.708-.433 8.334-3.828 8.974-8.402V13.526h3.925v16.735c0 6.264-5.698 10.539-10.425 10.987-4.728.448-6.931.438-11.806 0-4.87-.448-10.11-4.852-10.11-10.415ZM74.238 41.238V13.52h3.382l24.897 20.088V13.521h3.834v27.717h-3.118L78.047 21.005v20.233h-3.809ZM129.44 15.875c7.226-.927 12.283 1.164 16.401 4.553l1.524-4.589c-6.383-2.524-13.249-2.612-18.306-2.318-19.205.675-24.633 23.375-4.976 27.717 7.951 1.282 16.193.886 23.043-1.205v-12.12c-3.189-.083-6.378-.16-9.567-.242v2.992c1.315-.098 2.636-.195 3.951-.288v7.968c-5.581 1.994-11.09 1.798-16.544-.01-11.694-5.748-8.515-20.645 4.474-22.458ZM180 38.225v3.013h-27.446V13.954H180v3.312c-7.459-.562-14.741-.639-21.947-.484v8.627c7.175.103 14.086.34 20.708-.175v3.122l-20.708-.31v10.756c8.562.231 15.925.056 21.947-.577Z" fill="#002D6E"/></svg>
